<?xml version="1.0" encoding="UTF-8" standalone="no"?>
<!DOCTYPE svg PUBLIC "-//W3C//DTD SVG 1.1//EN"
 "http://www.w3.org/Graphics/SVG/1.1/DTD/svg11.dtd">
<!-- Generated by graphviz version 9.0.0 (0)
 -->
<!-- Title: G Pages: 1 -->
<svg width="865pt" height="195pt"
 viewBox="0.00 0.00 864.95 195.12" xmlns="http://www.w3.org/2000/svg" xmlns:xlink="http://www.w3.org/1999/xlink">
<g id="graph0" class="graph" transform="scale(1 1) rotate(0) translate(21.6 173.52)">
<title>G</title>
<polygon fill="#111111" stroke="none" points="-21.6,21.6 -21.6,-173.52 843.35,-173.52 843.35,21.6 -21.6,21.6"/>
<!-- services/banking.ts -->
<g id="node1" class="node">
<title>services/banking.ts</title>
<path fill="none" stroke="#ff6c60" d="M122.83,-79.75C122.83,-79.75 7.92,-79.75 7.92,-79.75 3.96,-79.75 0,-75.79 0,-71.83 0,-71.83 0,-63.92 0,-63.92 0,-59.96 3.96,-56 7.92,-56 7.92,-56 122.83,-56 122.83,-56 126.79,-56 130.75,-59.96 130.75,-63.92 130.75,-63.92 130.75,-71.83 130.75,-71.83 130.75,-75.79 126.79,-79.75 122.83,-79.75"/>
<text text-anchor="middle" x="65.38" y="-62.45" font-family="Arial" font-size="14.00" fill="#ff6c60">services/banking.ts</text>
</g>
<!-- services/payements.ts -->
<g id="node2" class="node">
<title>services/payements.ts</title>
<path fill="none" stroke="#ff6c60" d="M309.08,-79.75C309.08,-79.75 174.67,-79.75 174.67,-79.75 170.71,-79.75 166.75,-75.79 166.75,-71.83 166.75,-71.83 166.75,-63.92 166.75,-63.92 166.75,-59.96 170.71,-56 174.67,-56 174.67,-56 309.08,-56 309.08,-56 313.04,-56 317,-59.96 317,-63.92 317,-63.92 317,-71.83 317,-71.83 317,-75.79 313.04,-79.75 309.08,-79.75"/>
<text text-anchor="middle" x="241.88" y="-62.45" font-family="Arial" font-size="14.00" fill="#ff6c60">services/payements.ts</text>
</g>
<!-- services/banking.ts&#45;&gt;services/payements.ts -->
<g id="edge1" class="edge">
<title>services/banking.ts&#45;&gt;services/payements.ts</title>
<path fill="none" stroke="#757575" d="M130.86,-61.33C138.71,-61.19 146.83,-61.12 154.93,-61.13"/>
<polygon fill="#757575" stroke="#757575" points="154.81,-64.62 164.83,-61.18 154.85,-57.63 154.81,-64.62"/>
</g>
<!-- services/payements.ts&#45;&gt;services/banking.ts -->
<g id="edge8" class="edge">
<title>services/payements.ts&#45;&gt;services/banking.ts</title>
<path fill="none" stroke="#757575" d="M166.34,-74.56C158.32,-74.64 150.15,-74.65 142.11,-74.57"/>
<polygon fill="#757575" stroke="#757575" points="142.42,-71.08 132.37,-74.44 142.32,-78.08 142.42,-71.08"/>
</g>
<!-- services/debt.ts -->
<g id="node3" class="node">
<title>services/debt.ts</title>
<path fill="none" stroke="#ff6c60" d="M616.33,-103.75C616.33,-103.75 522.42,-103.75 522.42,-103.75 518.46,-103.75 514.5,-99.79 514.5,-95.83 514.5,-95.83 514.5,-87.92 514.5,-87.92 514.5,-83.96 518.46,-80 522.42,-80 522.42,-80 616.33,-80 616.33,-80 620.29,-80 624.25,-83.96 624.25,-87.92 624.25,-87.92 624.25,-95.83 624.25,-95.83 624.25,-99.79 620.29,-103.75 616.33,-103.75"/>
<text text-anchor="middle" x="569.38" y="-86.45" font-family="Arial" font-size="14.00" fill="#ff6c60">services/debt.ts</text>
</g>
<!-- services/payements.ts&#45;&gt;services/debt.ts -->
<g id="edge9" class="edge">
<title>services/payements.ts&#45;&gt;services/debt.ts</title>
<path fill="none" stroke="#757575" d="M317.14,-67.58C373.08,-70.33 449.06,-76 502.77,-81.5"/>
<polygon fill="#757575" stroke="#757575" points="502.4,-84.98 512.71,-82.54 503.13,-78.02 502.4,-84.98"/>
</g>
<!-- services/debt_centers.ts -->
<g id="node4" class="node">
<title>services/debt_centers.ts</title>
<path fill="none" stroke="#ff6c60" d="M813.83,-103.75C813.83,-103.75 668.17,-103.75 668.17,-103.75 664.21,-103.75 660.25,-99.79 660.25,-95.83 660.25,-95.83 660.25,-87.92 660.25,-87.92 660.25,-83.96 664.21,-80 668.17,-80 668.17,-80 813.83,-80 813.83,-80 817.79,-80 821.75,-83.96 821.75,-87.92 821.75,-87.92 821.75,-95.83 821.75,-95.83 821.75,-99.79 817.79,-103.75 813.83,-103.75"/>
<text text-anchor="middle" x="741" y="-86.45" font-family="Arial" font-size="14.00" fill="#ff6c60">services/debt_centers.ts</text>
</g>
<!-- services/payements.ts&#45;&gt;services/debt_centers.ts -->
<g id="edge10" class="edge">
<title>services/payements.ts&#45;&gt;services/debt_centers.ts</title>
<path fill="none" stroke="#757575" d="M256.2,-79.99C275.74,-96.84 314.06,-126.55 353,-137.88 474.43,-173.2 624.83,-132.42 697.18,-107.84"/>
<polygon fill="#757575" stroke="#757575" points="697.96,-111.27 706.26,-104.69 695.66,-104.66 697.96,-111.27"/>
</g>
<!-- services/email.ts -->
<g id="node5" class="node">
<title>services/email.ts</title>
<path fill="none" stroke="#ff6c60" d="M791.33,-23.75C791.33,-23.75 690.67,-23.75 690.67,-23.75 686.71,-23.75 682.75,-19.79 682.75,-15.83 682.75,-15.83 682.75,-7.92 682.75,-7.92 682.75,-3.96 686.71,0 690.67,0 690.67,0 791.33,0 791.33,0 795.29,0 799.25,-3.96 799.25,-7.92 799.25,-7.92 799.25,-15.83 799.25,-15.83 799.25,-19.79 795.29,-23.75 791.33,-23.75"/>
<text text-anchor="middle" x="741" y="-6.45" font-family="Arial" font-size="14.00" fill="#ff6c60">services/email.ts</text>
</g>
<!-- services/payements.ts&#45;&gt;services/email.ts -->
<g id="edge11" class="edge">
<title>services/payements.ts&#45;&gt;services/email.ts</title>
<path fill="none" stroke="#757575" d="M309.92,-55.53C404.4,-42.29 575.83,-22.96 671.24,-14.79"/>
<polygon fill="#757575" stroke="#757575" points="671.3,-18.29 680.98,-13.97 670.72,-11.32 671.3,-18.29"/>
</g>
<!-- services/reports.ts -->
<g id="node6" class="node">
<title>services/reports.ts</title>
<path fill="none" stroke="#ff6c60" d="M470.58,-128.75C470.58,-128.75 360.92,-128.75 360.92,-128.75 356.96,-128.75 353,-124.79 353,-120.83 353,-120.83 353,-112.92 353,-112.92 353,-108.96 356.96,-105 360.92,-105 360.92,-105 470.58,-105 470.58,-105 474.54,-105 478.5,-108.96 478.5,-112.92 478.5,-112.92 478.5,-120.83 478.5,-120.83 478.5,-124.79 474.54,-128.75 470.58,-128.75"/>
<text text-anchor="middle" x="415.75" y="-111.45" font-family="Arial" font-size="14.00" fill="#ff6c60">services/reports.ts</text>
</g>
<!-- services/payements.ts&#45;&gt;services/reports.ts -->
<g id="edge12" class="edge">
<title>services/payements.ts&#45;&gt;services/reports.ts</title>
<path fill="none" stroke="#757575" d="M309.33,-80.23C332.81,-86.54 358.34,-94.14 378.4,-100.88"/>
<polygon fill="#757575" stroke="#757575" points="377.2,-104.17 387.79,-104.13 379.49,-97.55 377.2,-104.17"/>
</g>
<!-- services/debt.ts&#45;&gt;services/payements.ts -->
<g id="edge4" class="edge">
<title>services/debt.ts&#45;&gt;services/payements.ts</title>
<path fill="none" stroke="#757575" d="M514.21,-93.06C463.58,-91.09 387.14,-85.73 328.29,-80.19"/>
<polygon fill="#757575" stroke="#757575" points="328.94,-76.74 318.65,-79.27 328.27,-83.71 328.94,-76.74"/>
</g>
<!-- services/debt.ts&#45;&gt;services/debt_centers.ts -->
<g id="edge2" class="edge">
<title>services/debt.ts&#45;&gt;services/debt_centers.ts</title>
<path fill="none" stroke="#757575" d="M624.51,-85.53C632.16,-85.32 640.18,-85.19 648.3,-85.14"/>
<polygon fill="#757575" stroke="#757575" points="648.28,-88.64 658.28,-85.14 648.28,-81.64 648.28,-88.64"/>
</g>
<!-- services/debt.ts&#45;&gt;services/email.ts -->
<g id="edge3" class="edge">
<title>services/debt.ts&#45;&gt;services/email.ts</title>
<path fill="none" stroke="#757575" d="M596.51,-79.55C625.15,-66.04 671.29,-44.28 703.5,-29.09"/>
<polygon fill="#757575" stroke="#757575" points="704.92,-32.29 712.47,-24.86 701.93,-25.96 704.92,-32.29"/>
</g>
<!-- services/debt.ts&#45;&gt;services/reports.ts -->
<g id="edge5" class="edge">
<title>services/debt.ts&#45;&gt;services/reports.ts</title>
<path fill="none" stroke="#757575" d="M529.61,-104.24C517.55,-106.78 503.84,-109.3 490.23,-111.51"/>
<polygon fill="#757575" stroke="#757575" points="489.69,-108.05 480.35,-113.05 490.78,-114.96 489.69,-108.05"/>
</g>
<!-- services/debt_centers.ts&#45;&gt;services/debt.ts -->
<g id="edge6" class="edge">
<title>services/debt_centers.ts&#45;&gt;services/debt.ts</title>
<path fill="none" stroke="#757575" d="M659.79,-98.62C651.76,-98.65 643.67,-98.6 635.82,-98.47"/>
<polygon fill="#757575" stroke="#757575" points="636.1,-94.97 626.02,-98.25 635.95,-101.97 636.1,-94.97"/>
</g>
<!-- services/email.ts&#45;&gt;services/payements.ts -->
<g id="edge7" class="edge">
<title>services/email.ts&#45;&gt;services/payements.ts</title>
<path fill="none" stroke="#757575" d="M682.52,-22.86C595.56,-35.37 429.99,-54.27 328.71,-63.46"/>
<polygon fill="#757575" stroke="#757575" points="328.46,-59.96 318.81,-64.34 329.08,-66.94 328.46,-59.96"/>
</g>
<!-- services/reports.ts&#45;&gt;services/payements.ts -->
<g id="edge14" class="edge">
<title>services/reports.ts&#45;&gt;services/payements.ts</title>
<path fill="none" stroke="#757575" d="M352.77,-105.72C328.18,-99.21 300.75,-91.1 279.45,-83.94"/>
<polygon fill="#757575" stroke="#757575" points="280.63,-80.65 270.04,-80.69 278.34,-87.27 280.63,-80.65"/>
</g>
<!-- services/reports.ts&#45;&gt;services/debt.ts -->
<g id="edge13" class="edge">
<title>services/reports.ts&#45;&gt;services/debt.ts</title>
<path fill="none" stroke="#757575" d="M455.4,-104.53C469.88,-101.49 486.75,-98.46 502.97,-95.97"/>
<polygon fill="#757575" stroke="#757575" points="503.18,-99.47 512.56,-94.55 502.16,-92.55 503.18,-99.47"/>
</g>
</g>
</svg>
